<?xml version="1.0" encoding="UTF-8"?>
<svg xmlns="http://www.w3.org/2000/svg" xmlns:xlink="http://www.w3.org/1999/xlink" width="20pt" height="20pt" viewBox="0 0 20 20" version="1.1">
<g id="surface1">
<path style=" stroke:none;fill-rule:nonzero;fill:rgb(89.803922%,89.803922%,89.803922%);fill-opacity:1;" d="M 0.464844 20 C 0.351562 20 0.242188 19.957031 0.160156 19.875 C 0.0546875 19.765625 0.015625 19.609375 0.0546875 19.460938 L 1.355469 14.714844 C 0.542969 13.25 0.117188 11.59375 0.117188 9.914062 C 0.121094 4.445312 4.570312 0 10.035156 0 C 12.6875 0 15.179688 1.035156 17.050781 2.90625 C 18.921875 4.78125 19.953125 7.273438 19.953125 9.921875 C 19.949219 15.386719 15.5 19.835938 10.035156 19.835938 C 10.035156 19.835938 10.03125 19.835938 10.03125 19.835938 C 8.433594 19.835938 6.851562 19.445312 5.441406 18.707031 L 0.574219 19.984375 C 0.535156 19.996094 0.5 20 0.464844 20 Z M 0.464844 20 "/>
<path style=" stroke:none;fill-rule:nonzero;fill:rgb(100%,100%,100%);fill-opacity:1;" d="M 0.464844 19.574219 L 1.8125 14.65625 C 0.980469 13.21875 0.542969 11.585938 0.542969 9.914062 C 0.546875 4.683594 4.804688 0.425781 10.035156 0.425781 C 12.574219 0.425781 14.957031 1.414062 16.75 3.207031 C 18.542969 5 19.527344 7.386719 19.527344 9.921875 C 19.523438 15.152344 15.265625 19.410156 10.035156 19.410156 L 10.03125 19.410156 C 8.441406 19.410156 6.882812 19.011719 5.496094 18.253906 Z M 5.730469 16.539062 L 6.015625 16.707031 C 7.226562 17.425781 8.617188 17.808594 10.03125 17.808594 L 10.035156 17.808594 C 14.382812 17.808594 17.921875 14.269531 17.925781 9.921875 C 17.925781 7.8125 17.105469 5.832031 15.617188 4.339844 C 14.125 2.851562 12.144531 2.027344 10.039062 2.027344 C 5.6875 2.027344 2.148438 5.566406 2.148438 9.914062 C 2.144531 11.40625 2.5625 12.855469 3.351562 14.113281 L 3.539062 14.410156 L 2.742188 17.320312 Z M 5.730469 16.539062 "/>
<path style=" stroke:none;fill-rule:nonzero;fill:rgb(39.215686%,69.411765%,38.039216%);fill-opacity:1;" d="M 0.792969 19.242188 L 2.09375 14.496094 C 1.292969 13.105469 0.871094 11.53125 0.871094 9.917969 C 0.875 4.867188 4.984375 0.757812 10.035156 0.757812 C 12.484375 0.757812 14.785156 1.710938 16.515625 3.445312 C 18.246094 5.175781 19.199219 7.476562 19.195312 9.925781 C 19.195312 14.976562 15.082031 19.085938 10.035156 19.085938 L 10.03125 19.085938 C 8.496094 19.082031 6.988281 18.699219 5.652344 17.96875 Z M 0.792969 19.242188 "/>
<path style=" stroke:none;fill-rule:nonzero;fill:rgb(100%,100%,100%);fill-opacity:1;" d="M 0.464844 19.574219 L 1.8125 14.65625 C 0.980469 13.21875 0.542969 11.585938 0.542969 9.914062 C 0.546875 4.683594 4.804688 0.425781 10.035156 0.425781 C 12.574219 0.425781 14.957031 1.414062 16.75 3.207031 C 18.542969 5 19.527344 7.386719 19.527344 9.921875 C 19.523438 15.152344 15.265625 19.410156 10.035156 19.410156 L 10.03125 19.410156 C 8.441406 19.410156 6.882812 19.011719 5.496094 18.253906 Z M 5.730469 16.539062 L 6.015625 16.707031 C 7.226562 17.425781 8.617188 17.808594 10.03125 17.808594 L 10.035156 17.808594 C 14.382812 17.808594 17.921875 14.269531 17.925781 9.921875 C 17.925781 7.8125 17.105469 5.832031 15.617188 4.339844 C 14.125 2.851562 12.144531 2.027344 10.039062 2.027344 C 5.6875 2.027344 2.148438 5.566406 2.148438 9.914062 C 2.144531 11.40625 2.5625 12.855469 3.351562 14.113281 L 3.539062 14.410156 L 2.742188 17.320312 Z M 5.730469 16.539062 "/>
<path style=" stroke:none;fill-rule:evenodd;fill:rgb(100%,100%,100%);fill-opacity:1;" d="M 7.664062 5.945312 C 7.484375 5.550781 7.296875 5.542969 7.128906 5.539062 C 6.992188 5.53125 6.832031 5.53125 6.675781 5.53125 C 6.515625 5.53125 6.261719 5.589844 6.042969 5.828125 C 5.824219 6.066406 5.210938 6.640625 5.210938 7.804688 C 5.210938 8.972656 6.0625 10.101562 6.179688 10.257812 C 6.300781 10.417969 7.820312 12.886719 10.230469 13.839844 C 12.234375 14.628906 12.644531 14.472656 13.078125 14.433594 C 13.511719 14.394531 14.480469 13.859375 14.679688 13.304688 C 14.875 12.75 14.875 12.277344 14.816406 12.175781 C 14.757812 12.078125 14.597656 12.019531 14.363281 11.902344 C 14.125 11.78125 12.960938 11.207031 12.742188 11.128906 C 12.523438 11.050781 12.367188 11.011719 12.207031 11.25 C 12.050781 11.484375 11.597656 12.019531 11.457031 12.175781 C 11.320312 12.335938 11.179688 12.355469 10.945312 12.238281 C 10.707031 12.117188 9.941406 11.867188 9.035156 11.058594 C 8.332031 10.429688 7.855469 9.65625 7.71875 9.417969 C 7.578125 9.179688 7.714844 9.0625 7.820312 8.933594 C 8.011719 8.699219 8.335938 8.28125 8.414062 8.121094 C 8.492188 7.964844 8.453125 7.828125 8.394531 7.707031 C 8.335938 7.589844 7.875 6.417969 7.664062 5.945312 Z M 7.664062 5.945312 "/>
</g>
</svg>
